<?xml version="1.0" encoding="utf-8"?>
<!-- Generator: Adobe Illustrator 23.0.1, SVG Export Plug-In . SVG Version: 6.00 Build 0)  -->
<svg version="1.1" id="Layer_1" xmlns="http://www.w3.org/2000/svg" xmlns:xlink="http://www.w3.org/1999/xlink" x="0px" y="0px"
	 viewBox="0 0 792 612" style="enable-background:new 0 0 792 612;" xml:space="preserve">
<style type="text/css">
	.st0{clip-path:url(#SVGID_2_);fill:#F28A44;}
	.st1{clip-path:url(#SVGID_2_);fill:#51565C;}
</style>
<g>
	<defs>
		<rect id="SVGID_1_" width="792" height="612"/>
	</defs>
	<clipPath id="SVGID_2_">
		<use xlink:href="#SVGID_1_"  style="overflow:visible;"/>
	</clipPath>
	<path class="st0" d="M611.8,163.26c0.36,13.26-0.85,28.32-2.61,43.28c-1.23,10.48-3.03,20.92-5.86,31.01
		c-2.45,8.71-5.24,17.27-10.09,24.75c-7.53,11.6-16.61,10.88-23.99-0.54c-1.99-3.09-3.4-6.68-5.03-10.07
		c-0.36-0.76-0.36-1.88-1.36-1.9c-1.08-0.01-0.98,1.13-1.23,1.94c-2.13,6.72-4.59,13.26-8.12,19.18c-2.24,3.77-4.79,7.23-8.31,9.55
		c-5,3.29-9.59,2.11-14.01-1.55c-3.78-3.13-6.18-7.54-8.46-12.05c-5.7-11.27-8.64-23.68-11.16-36.26c-6.07-30.26-6.78-61-5.53-91.81
		c0.53-13.15,1.98-26.26,4.24-39.25c2.2-12.6,4.92-24.96,9.44-36.71c2.31-6,5.17-11.61,9.21-16.43c7.43-8.88,15.22-6.85,21.43,0.99
		c5.52,6.95,8.53,15.48,11.32,24.14c0.26,0.82,0.27,1.98,1.13,2.16c1.18,0.25,1.3-1.16,1.65-1.97c2.25-5.32,4.77-10.39,8.64-14.44
		c5.29-5.53,11.57-5.59,16.82,0.08c5.59,6.04,8.68,13.88,11.26,21.92c5.71,17.81,8.15,36.41,9.62,55.25
		C611.5,143.48,611.75,152.41,611.8,163.26 M526.71,159.81c-0.06,9.74,0.24,18.45,0.98,27.16c1.21,14.14,3.27,28.05,7.39,41.47
		c1.87,6.1,4.17,12,8.02,16.88c4.81,6.1,9.99,6.58,15.7,1.3c1.55-1.43,2.45-3.5,1.73-5.95c-2.83-9.65-4.62-19.56-6.05-29.61
		c-1.9-13.28-2.89-26.64-3.24-40.06c-0.36-14.01,0.05-28.01,1.26-41.95c0.68-7.77,1.61-15.52,2.98-23.19
		c1.39-7.76,2.96-15.47,5.15-22.99c0.37-1.28,0.73-2.57-0.11-3.83c-4.82-7.29-10.93-9.18-17.11-1.87
		c-5.26,6.22-7.58,14.3-10.01,22.07c-2.14,6.83-3.13,14.23-4.07,21.47C527.58,133.98,526.37,147.34,526.71,159.81 M607.2,159.98
		c0.38-9.6-0.69-20.63-2.53-31.5c-1.38-8.16-3.27-16.26-7.5-23.27c-3.51-5.81-8.44-5.85-12.11-0.17c-2.81,4.35-4.5,9.3-5.75,14.41
		c-3.32,13.54-4.4,27.44-4.59,41.46c-0.15,10.9,0.71,21.73,2.37,32.41c1.39,8.96,3.21,17.92,8.08,25.49
		c3.43,5.34,7.55,5.53,11.33,0.5c3.12-4.15,4.72-9.19,6.02-14.32C606.11,190.8,607.32,176.25,607.2,159.98"/>
	<path class="st1" d="M450.95,305.02c0.32,15.16,5.16,28.12,17.88,37.77c3.37-9.83,7.37-18.79,13.35-26.89
		c18.09-24.52,53.44-16.23,63.84,6.93c4.65,10.36,6.15,21.18,6.27,32.31c0.22,21.52,0.29,43.04,0.57,64.56
		c0.04,2.79-0.75,3.45-3.47,3.66c-7.1,0.52-14.08-0.95-21.15-0.89c-1.68,0.02-3.98,1.23-4.88-0.11c-0.83-1.23-0.2-3.46-0.15-5.25
		c0.56-23.75,0.58-47.5-0.84-71.22c-0.49-8.06-1.92-16.07-7.06-22.75c-7-9.08-20.6-9.82-28.67-1.61
		c-7.25,7.38-9.96,16.77-11.3,26.64c-1.99,14.72-1.01,29.54-1.02,44.32c-0.01,9.41,0.09,18.83,0.25,28.24
		c0.03,1.98-0.76,2.48-2.55,2.5c-4.49,0.05-8.97,0.16-13.44-0.31c-2.45-0.25-4.92-0.29-7.37-0.51c-2.07-0.19-4.88,1.24-6.01-0.3
		c-1.01-1.38-0.29-4.08-0.22-6.19c0.84-26.66,1.05-53.32,0.47-79.99c-0.14-6.39,0.12-12.85-0.81-19.13
		C443.76,310.95,445.96,307.55,450.95,305.02"/>
	<path class="st1" d="M179.15,304.72c0.01,5.32,0.58,10.03,1.84,14.69c2.29,8.46,6.76,15.46,13.24,21.3
		c2.15,1.94,3.04,1.65,3.94-1.16c3.21-9.97,7.98-19.06,15.03-26.99c14.49-16.3,36.76-13,48.85-4.3c8.33,6,12.81,14.45,15.54,24.04
		c2.35,8.27,2.78,16.76,2.84,25.29c0.15,20.83,0.24,41.67,0.49,62.5c0.03,2.52-0.71,3.07-3.14,3.26c-7.21,0.57-14.3-0.93-21.48-0.85
		c-1.68,0.02-3.89,1.24-4.9-0.15c-0.8-1.1-0.19-3.24-0.17-4.92c0.15-11.2,0.69-22.42,0.36-33.61c-0.42-14.2,0.21-28.45-1.69-42.59
		c-0.72-5.34-1.97-10.55-4.63-15.3c-7.71-13.76-26.37-13.46-35.01,1.13c-4.86,8.21-6.85,17.24-7.44,26.58
		c-1.35,21.38-0.09,42.79-0.15,64.18c-0.02,6.32,0.88,5.15-5.27,5.48c-7.63,0.41-15.19-1.48-22.82-0.65
		c-2.15,0.24-1.72-1.26-1.7-2.39c0.14-6.83,0.3-13.66,0.49-20.49c0.8-28.23,0.98-56.47-0.9-84.66
		C172.11,309.6,175.23,307.62,179.15,304.72"/>
	<path class="st1" d="M607.45,343.63c-1.97,1.93-3.96,1.66-5.99,1.38c-5.74-0.8-10.54-3.58-14.95-7.11
		c-3.46-2.77-7.28-4.43-11.73-4.23c-2.1,0.09-2.13-0.6-1.59-2.32c3-9.68,9.15-17.03,17.76-21.85c18.37-10.27,37.86-11.26,57.46-4.26
		c13.32,4.76,20.22,15.53,23.36,28.95c1.41,6.04,1.62,12.18,1.63,18.34c0.02,22.31-0.06,44.61,0.11,66.92c0.02,3.22-1,3.8-3.91,3.71
		c-6.87-0.22-6.69-0.09-7.33-6.97c-1.1-11.8-2.74-23.51-8.81-34.03c-0.9-1.55-1.58-4.19-3.61-3.8c-1.5,0.29-1.07,2.97-1.59,4.56
		c-4.72,14.61-11.52,27.84-24.47,37.06c-13.35,9.51-35.67,8.43-46.47-2.36c-8.1-8.1-9.99-21.2-4.73-32.39
		c5.06-10.77,13.76-17.62,24.17-22.69c14.36-6.99,29.65-10.27,45.47-11.32c2.72-0.18,3.67-0.96,3.54-3.74
		c-0.38-8.16-0.4-16.35-3.01-24.23c-2.47-7.43-6.88-12.93-15.14-13.84c-8.93-0.98-17.16,0.73-22.36,8.89
		c-4.56,7.14-3.78,14.91-1.24,22.61C604.52,342.43,605.89,343.04,607.45,343.63 M599.48,393.84c0.23,17.36,17.29,19.42,26.45,12.83
		c2.57-1.85,4.88-3.94,6.76-6.47c8.63-11.57,11.37-25.06,12.73-39.01c0.15-1.58-0.37-1.95-1.85-1.75
		c-11.25,1.52-22.19,3.97-31.57,10.86C604.05,376.12,599.37,383.72,599.48,393.84"/>
	<path class="st1" d="M334.1,353.59c-0.45,21.96,0.43,43.89,1.37,65.82c0.13,3.15-0.7,3.94-3.83,3.66
		c-7.81-0.69-15.67-1.1-23.49-0.29c-2.41,0.25-2.43-0.48-2.34-2.34c1.01-21.25,1.42-42.52,1.29-63.8
		c-0.08-12.88-0.61-25.74-1.18-38.6c-0.08-1.76-0.64-2.31-2.37-2.19c-3.12,0.22-6.27,0.19-9.39,0.42c-1.89,0.14-2.7-0.49-2.55-2.43
		c0.2-2.68,0.35-5.36,0.38-8.05c0.02-1.59,0.76-1.78,2.11-1.71c2.91,0.15,5.85-0.08,8.73,0.26c2.68,0.32,3.14-0.89,3.26-3.13
		c0.39-7.63,1.73-15.05,4.39-22.28c6.02-16.36,18.32-23.73,35.02-25.18c8.59-0.75,16.7,0.93,24.54,4.33
		c1.32,0.57,2.78,1.17,4.17,1.16c3.37-0.02,3.74,1.45,3.01,4.33c-0.81,3.19-2.17,6.11-3.76,8.91c-1.68,2.95-2.91,6.03-3.39,9.37
		c-0.59,4.05-3.65,1.87-5.56,2.1c-2.45,0.3-1.29-1.84-1.24-2.88c0.23-4.71-0.65-9.11-3.02-13.23c-2.31-4.03-5.65-6.28-10.39-5.99
		c-4.94,0.3-8.36,2.92-10.34,7.36c-2.49,5.6-3.35,11.59-3.85,17.63c-0.42,5.13-0.57,10.28-0.9,15.42c-0.11,1.68,0.35,2.35,2.2,2.36
		c8.07,0.05,16.14,0.4,24.18-0.39c1.68-0.17,3.36,0.61,5.07-0.15c0.85-0.37,1.46,0.17,1.52,1.18c0.16,2.79,0.38,5.58,0.49,8.38
		c0.09,2.19-1.05,2.87-3.16,2.6c-9.16-1.19-18.36-0.4-27.54-0.69c-2.18-0.07-2.84,0.55-2.87,2.76
		C334.51,330.07,333.74,341.82,334.1,353.59"/>
	<path class="st0" d="M511.24,53.26c-26.94,30.68-37.03,68.31-36.62,109.98c0.4,39.91,10.53,75.94,35.9,104.63
		c-7.65-1.95-13.96-7.27-20.37-12.27c-7.44-5.8-14.16-12.63-20.11-20.42c-9.14-11.98-15.97-25.48-20.3-40.69
		c-3.86-13.56-5.38-27.44-4.42-41.6c0.52-7.65,1.74-15.23,3.66-22.65c4.08-15.77,10.85-29.83,20.14-42.21
		c8.86-11.79,19.24-21.53,31.18-29C503.68,56.91,506.99,54.66,511.24,53.26"/>
	<path class="st1" d="M119.99,340.63c0.48-24.55-0.61-50.4-1.48-76.26c-0.07-2.05,0.38-2.55,2.37-2.85
		c7.42-1.15,14.76,0.38,22.14,0.32c6.01-0.05,6.17,0.15,5.92,6.07c-1.13,26.64-1.49,53.29-1.45,79.95
		c0.04,23.86,0.69,47.71,1.59,71.55c0.1,2.6-0.23,3.81-3.4,4.11c-7,0.65-13.86-0.67-20.8-0.65c-6.43,0.02-6.47-0.05-6.29-6.65
		C119.28,391.47,120.23,366.73,119.99,340.63"/>
	<path class="st1" d="M391.88,422.89c0-18.55,0.07-36.8-0.02-55.05c-0.1-19.94-0.31-39.89-0.57-59.83c-0.03-2.43,0.23-3.5,3.2-3.35
		c7.38,0.36,14.71-1.3,22.15-0.69c3.17,0.26,4.33,0.99,4.29,4.5c-0.34,26.1-0.99,52.21-0.56,78.32c0.18,11.09,0.24,22.18,0.53,33.27
		c0.07,2.51-0.64,3.27-3.13,3.21c-4.7-0.11-9.41,0.05-14.1-0.46C399.64,422.37,395.61,422.33,391.88,422.89"/>
	<path class="st0" d="M637.39,160.74c0.21,8.77-0.69,17.39-3.37,25.64c-0.9,2.78-1.93,6.16-4.93,6.28
		c-3.31,0.13-4.61-3.28-5.55-6.34c-3.63-11.91-4.16-24.17-2.9-36.62c0.63-6.21,1.28-12.39,4.01-17.99c0.91-1.86,1.86-3.76,3.84-3.98
		c2.24-0.24,3.39,1.69,4.36,3.69c3.21,6.61,3.71,13.99,4.48,21.27C637.63,155.34,637.39,158.05,637.39,160.74"/>
	<path class="st1" d="M419.08,259.87c0,6.17-0.07,11.99,0.04,17.8c0.04,1.88-0.37,2.75-2.43,3.11c-5.27,0.92-10.45,1.01-15.63-0.44
		c-2.46-0.69-4.95-1.44-7.8-0.49c0-6.47,0.03-12.73-0.02-18.99c-0.01-1.34,0.72-1.63,1.78-1.94c6.16-1.82,12.26-2.54,18.23,0.65
		C415.09,260.55,417.01,260.82,419.08,259.87"/>
</g>
</svg>
